<?xml version="1.0" standalone="no"?>
<!DOCTYPE svg PUBLIC "-//W3C//DTD SVG 20010904//EN"
 "http://www.w3.org/TR/2001/REC-SVG-20010904/DTD/svg10.dtd">
<svg version="1.0" xmlns="http://www.w3.org/2000/svg"
 width="1172.000000pt" height="1280.000000pt" viewBox="0 0 1172.000000 1280.000000"
 preserveAspectRatio="xMidYMid meet">
<metadata>
Created by potrace 1.15, written by Peter Selinger 2001-2017
</metadata>
<g transform="translate(0.000000,1280.000000) scale(0.100000,-0.100000)" stroke="none">
<path d="M3064 12742 c-151 -169 -274 -329 -396 -518 -919 -1413 -1018 -3373
-240 -4739 62 -109 206 -321 288 -425 104 -132 393 -414 525 -513 527 -394
1099 -586 1852 -623 l127 -6 0 -2953 0 -2953 268 -7 c465 -13 1135 6 1567 45
1090 99 1968 338 2660 723 137 76 417 264 540 363 146 117 364 331 489 480
416 497 694 1108 845 1859 157 783 171 1756 41 2875 -22 189 -81 633 -86 638
-1 2 -1122 -1080 -2490 -2405 -1368 -1324 -2502 -2421 -2521 -2436 l-33 -28 0
1899 0 1900 128 6 c752 37 1327 230 1851 624 207 156 465 423 627 648 639 895
862 2163 603 3419 -165 798 -545 1567 -1050 2123 l-56 62 -584 -857 c-321
-472 -608 -893 -637 -935 l-53 -78 -132 158 c-722 861 -1331 1582 -1336 1582
-4 0 -337 -392 -740 -870 l-733 -870 -630 927 c-347 511 -633 931 -637 935 -3
4 -29 -19 -57 -50z"/>
<path d="M157 6868 c-203 -1439 -208 -2488 -17 -3428 143 -703 403 -1283 798
-1780 103 -128 392 -416 527 -524 625 -498 1448 -827 2490 -995 105 -17 202
-33 218 -36 l27 -4 0 1498 0 1499 -2010 1946 c-1105 1070 -2011 1946 -2013
1946 -2 0 -11 -55 -20 -122z"/>
</g>
</svg>
